<?xml version="1.0" standalone="no"?>
<!DOCTYPE svg PUBLIC "-//W3C//DTD SVG 20010904//EN"
 "http://www.w3.org/TR/2001/REC-SVG-20010904/DTD/svg10.dtd">
<svg version="1.0" xmlns="http://www.w3.org/2000/svg"
 width="100.000000pt" height="100.000000pt" viewBox="0 0 100.000000 100.000000"
 preserveAspectRatio="xMidYMid meet">
<metadata>
Created by potrace 1.16, written by Peter Selinger 2001-2019
</metadata>
<g transform="translate(0.000000,100.000000) scale(0.021231,-0.020161)"
fill="#000000" stroke="none">
<path d="M202 1905 c-1 -1034 2 -1552 8 -1577 13 -45 51 -93 94 -116 29 -16
162 -17 2041 -17 1106 0 2022 3 2037 8 38 10 98 65 114 104 11 26 14 178 14
803 0 730 -1 771 -18 766 -9 -3 -192 -50 -407 -105 -399 -102 -426 -109 -435
-122 -12 -17 -293 -149 -368 -173 -202 -64 -496 -86 -691 -51 -46 8 -87 13
-91 10 -13 -8 -58 -149 -71 -219 -14 -83 -6 -193 21 -279 11 -34 20 -90 20
-124 l0 -63 -54 0 c-49 0 -62 5 -137 56 -115 77 -127 90 -147 154 -20 65 -23
335 -4 410 6 24 10 45 9 47 -2 1 -41 -11 -87 -27 -126 -43 -211 -53 -405 -47
-132 4 -187 10 -245 27 -95 27 -241 96 -331 155 l-69 47 0 53 c0 47 5 59 39
102 21 26 51 60 67 75 58 53 191 142 262 175 l73 34 -49 57 c-102 119 -183
272 -224 421 l-23 83 -130 111 c-126 107 -286 249 -464 409 -47 43 -90 78 -96
78 -5 0 -36 -21 -67 -46 -50 -40 -58 -50 -58 -80 l0 -34 -55 0 -55 0 -1 73
c-1 39 -5 137 -9 217 -3 80 -7 -548 -8 -1395z"/>
<path d="M1826 1799 c-102 -13 -181 -36 -255 -74 l-66 -33 58 -7 c124 -16 323
36 437 114 19 13 -72 13 -174 0z"/>
</g>
</svg>
